<svg xmlns="http://www.w3.org/2000/svg" viewBox="0 0 113.17 93.8"><g data-name="Layer 2"><path d="M3.28 90.51A11.3 11.3 0 010 82.14a11.28 11.28 0 013.28-8.44 11.45 11.45 0 018.38-3.22A11.2 11.2 0 0120 73.7a11.39 11.39 0 013.22 8.44 11.3 11.3 0 01-3.28 8.37 11.19 11.19 0 01-8.24 3.29 11.35 11.35 0 01-8.42-3.29zm109.89 2.21c0 .72-.45 1.08-1.34 1.08H92.94a1.77 1.77 0 01-1.88-1.21L55 1.88a1.87 1.87 0 01-.14-.81c0-.71.45-1.07 1.34-1.07H75a1.75 1.75 0 011.88 1.21L113 91.92a1.87 1.87 0 01.17.8z" fill="#f8f5f5" data-name="Layer 1"/></g></svg>