<svg xmlns="http://www.w3.org/2000/svg" viewBox="0 0 113.17 93.8"><defs><style>.cls-1{fill:#f8f5f5;}</style></defs><g id="Layer_2" data-name="Layer 2"><g id="Layer_1-2" data-name="Layer 1"><path class="cls-1" d="M3.28,90.51A11.3,11.3,0,0,1,0,82.14,11.28,11.28,0,0,1,3.28,73.7a11.45,11.45,0,0,1,8.38-3.22A11.2,11.2,0,0,1,20,73.7a11.39,11.39,0,0,1,3.22,8.44,11.3,11.3,0,0,1-3.28,8.37,11.19,11.19,0,0,1-8.24,3.29A11.35,11.35,0,0,1,3.28,90.51Z"/><path class="cls-1" d="M113.17,92.72c0,.72-.45,1.08-1.34,1.08H92.94a1.77,1.77,0,0,1-1.88-1.21L55,1.88a1.87,1.87,0,0,1-.14-.81c0-.71.45-1.07,1.34-1.07H75a1.75,1.75,0,0,1,1.88,1.21L113,91.92A1.87,1.87,0,0,1,113.17,92.72Z"/></g></g></svg>